<?xml version="1.0" standalone="no"?><!DOCTYPE svg PUBLIC "-//W3C//DTD SVG 1.1//EN" "http://www.w3.org/Graphics/SVG/1.1/DTD/svg11.dtd"><svg t="1502421369125" class="icon" style="" viewBox="0 0 1024 1024" version="1.1" xmlns="http://www.w3.org/2000/svg" p-id="7094" xmlns:xlink="http://www.w3.org/1999/xlink" width="32" height="32"><defs><style type="text/css"></style></defs><path d="M767.844969 363.65744l-42.641169 0 0-85.281315c0-117.688399-95.515401-213.2038-213.2038-213.2038s-213.2038 95.515401-213.2038 213.2038l0 85.281315-42.641169 0c-46.905286 0-85.281315 38.377052-85.281315 85.281315l0 426.408623c0 46.905286 38.377052 85.281315 85.281315 85.281315l511.689938 0c46.905286 0 85.281315-38.377052 85.281315-85.281315L853.126284 448.938756C853.126284 402.033469 814.749232 363.65744 767.844969 363.65744zM512 747.424894c-46.905286 0-85.281315-38.377052-85.281315-85.281315 0-46.905286 38.377052-85.281315 85.281315-85.281315s85.281315 38.377052 85.281315 85.281315C597.281315 709.047842 558.904263 747.424894 512 747.424894zM644.186601 363.65744 379.813399 363.65744l0-85.281315c0-72.915683 59.270918-132.186601 132.186601-132.186601s132.186601 59.270918 132.186601 132.186601L644.186601 363.65744z" p-id="7095" fill="#C7C7C7"></path></svg>